<svg xmlns="http://www.w3.org/2000/svg" xmlns:xlink="http://www.w3.org/1999/xlink" version="1.1" x="0px" y="0px" viewBox="0 0 100 100" enable-background="new 0 0 100 100" xml:space="preserve"><path d="M97.98,49.69c0-1.159-0.056-2.304-0.137-3.442l-4.116-0.357l4.007-1.071c-0.235-2.312-0.64-4.574-1.193-6.776l-4.134,0.364  l3.755-1.748c-0.632-2.227-1.419-4.386-2.354-6.467l-4,1.075l3.403-2.379c-1.007-2.074-2.16-4.064-3.445-5.956l-3.757,1.755  l2.926-2.922c-1.349-1.863-2.829-3.624-4.427-5.271l-3.384,2.372l2.372-3.384c-1.647-1.598-3.408-3.078-5.271-4.427l-2.922,2.926  l1.755-3.757c-1.893-1.286-3.882-2.438-5.956-3.445l-2.379,3.403l1.075-4c-2.081-0.934-4.24-1.722-6.467-2.353l-1.748,3.755  l0.364-4.134c-2.203-0.553-4.464-0.958-6.776-1.193l-1.071,4.007l-0.357-4.116c-1.138-0.081-2.283-0.137-3.442-0.137  c-1.159,0-2.304,0.056-3.442,0.137l-0.357,4.116l-1.071-4.007c-2.312,0.235-4.574,0.64-6.776,1.193l0.364,4.134l-1.748-3.755  c-2.227,0.631-4.386,1.419-6.467,2.354l1.075,4l-2.379-3.403c-2.074,1.007-4.064,2.159-5.956,3.445l1.755,3.757l-2.922-2.926  c-1.863,1.349-3.624,2.828-5.271,4.427l2.372,3.384l-3.384-2.372c-1.598,1.647-3.078,3.408-4.427,5.271l2.926,2.922l-3.757-1.755  c-1.286,1.892-2.438,3.882-3.445,5.956l3.403,2.379l-4-1.075c-0.934,2.081-1.722,4.24-2.354,6.467l3.755,1.748l-4.134-0.364  c-0.553,2.203-0.958,4.464-1.193,6.776l4.007,1.071l-4.116,0.357c-0.081,1.138-0.137,2.283-0.137,3.442  c0,1.159,0.056,2.304,0.137,3.442l4.116,0.357L2.87,54.56c0.235,2.312,0.64,4.574,1.193,6.776l4.134-0.364L4.442,62.72  c0.631,2.226,1.419,4.386,2.353,6.467l4-1.075l-3.403,2.379c1.007,2.074,2.159,4.063,3.445,5.956l3.757-1.755l-2.926,2.922  c1.349,1.863,2.828,3.624,4.427,5.271l3.384-2.372l-2.372,3.384c1.647,1.598,3.408,3.078,5.271,4.427l2.922-2.926l-1.755,3.757  c1.892,1.286,3.882,2.438,5.956,3.445l2.379-3.403l-1.075,4c2.081,0.934,4.24,1.722,6.467,2.354l1.748-3.755l-0.364,4.133  c2.203,0.553,4.464,0.958,6.776,1.193l1.071-4.007l0.357,4.116c1.138,0.081,2.283,0.137,3.442,0.137  c1.159,0,2.304-0.056,3.442-0.137l0.357-4.116l1.071,4.007c2.312-0.235,4.574-0.64,6.776-1.193l-0.364-4.133l1.748,3.755  c2.226-0.631,4.386-1.419,6.467-2.353l-1.075-4l2.379,3.403c2.074-1.007,4.063-2.16,5.956-3.445l-1.755-3.757l2.922,2.926  c1.863-1.349,3.624-2.828,5.271-4.427l-2.372-3.384l3.384,2.372c1.598-1.647,3.078-3.408,4.427-5.271l-2.926-2.922l3.757,1.755  c1.286-1.893,2.438-3.882,3.445-5.956l-3.403-2.379l4,1.075c0.934-2.081,1.722-4.24,2.353-6.467l-3.755-1.748l4.134,0.364  c0.553-2.203,0.958-4.464,1.193-6.776l-4.007-1.071l4.116-0.357C97.924,51.993,97.98,50.848,97.98,49.69z M50.302,81.192  c-17.398,0-31.503-14.104-31.503-31.503c0-17.398,14.104-31.503,31.503-31.503c17.399,0,31.503,14.104,31.503,31.503  C81.805,67.088,67.701,81.192,50.302,81.192z"></path><path d="M50.297,21.406c-15.621,0-28.283,12.663-28.283,28.283s12.663,28.283,28.283,28.283c15.62,0,28.283-12.663,28.283-28.283  S65.917,21.406,50.297,21.406z M54.12,29.412c6.187,1.165,11.414,5.085,14.329,10.447l-12.688,4.07  c-0.49-0.464-1.046-0.848-1.642-1.177V29.412z M54.483,47.353c0.736,0,1.333,0.597,1.333,1.333c0,0.736-0.597,1.332-1.333,1.332  c-0.736,0-1.332-0.597-1.332-1.332C53.151,47.949,53.747,47.353,54.483,47.353z M52.962,52.424c0.736,0,1.332,0.596,1.332,1.332  c0,0.736-0.596,1.332-1.332,1.332s-1.332-0.597-1.332-1.332C51.629,53.02,52.226,52.424,52.962,52.424z M50.297,44.29  c0.736,0,1.332,0.597,1.332,1.333c0,0.736-0.597,1.332-1.332,1.332c-0.736,0-1.333-0.597-1.333-1.332  C48.964,44.887,49.561,44.29,50.297,44.29z M48.964,53.756c0,0.736-0.596,1.332-1.332,1.332s-1.332-0.597-1.332-1.332  c0-0.736,0.596-1.332,1.332-1.332S48.964,53.02,48.964,53.756z M47.443,48.685c0,0.736-0.597,1.332-1.332,1.332  c-0.736,0-1.333-0.597-1.333-1.332c0-0.736,0.597-1.333,1.333-1.333C46.846,47.353,47.443,47.949,47.443,48.685z M46.484,29.41  v13.342c-0.601,0.332-1.164,0.72-1.658,1.19l-12.703-4.039C35.035,34.516,40.276,30.575,46.484,29.41z M29.65,49.69  c0-0.85,0.068-1.684,0.168-2.508l12.684,4.033c0.125,0.645,0.342,1.252,0.613,1.831l-7.861,10.74  C31.789,60.092,29.65,55.142,29.65,49.69z M50.297,70.337c-3.183,0-6.188-0.745-8.883-2.037l7.874-10.758  c0.336,0.043,0.667,0.102,1.015,0.102c0.292,0,0.568-0.055,0.852-0.086l7.653,10.921C56.208,69.661,53.333,70.337,50.297,70.337z   M70.944,49.69c0,5.602-2.25,10.683-5.885,14.406l-7.645-10.91c0.308-0.626,0.555-1.285,0.691-1.99l12.664-4.062  C70.873,47.973,70.944,48.822,70.944,49.69z"></path></svg>